<?xml version="1.0" standalone="no"?>
<!DOCTYPE svg PUBLIC "-//W3C//DTD SVG 20010904//EN"
 "http://www.w3.org/TR/2001/REC-SVG-20010904/DTD/svg10.dtd">
<svg version="1.0" xmlns="http://www.w3.org/2000/svg"
 width="16.000000pt" height="16.000000pt" viewBox="0 0 16.000000 16.000000"
 preserveAspectRatio="xMidYMid meet">
<metadata>
Created by potrace 1.11, written by Peter Selinger 2001-2013
</metadata>
<g transform="translate(0.000000,16.000000) scale(0.006154,-0.006154)"
fill="#000000" stroke="none">
<path d="M780 2144 c-166 -72 -165 -319 2 -389 139 -57 298 47 298 195 0 148
-163 254 -300 194z"/>
<path d="M1645 2141 c-168 -78 -164 -314 7 -385 48 -20 118 -20 166 -1 168 71
168 319 0 390 -50 20 -124 19 -173 -4z"/>
<path d="M0 1291 c0 -5 5 -55 10 -112 81 -796 836 -1329 1610 -1134 456 114
821 480 935 935 19 75 45 255 45 311 0 5 -95 9 -214 9 l-213 0 -7 -75 c-32
-357 -279 -654 -633 -762 -78 -23 -104 -26 -233 -26 -129 0 -155 3 -233 26
-151 46 -256 107 -366 211 -151 144 -248 345 -267 551 l-7 75 -213 0 c-119 0
-214 -4 -214 -9z"/>
</g>
</svg>
